<svg width="194" height="65" viewBox="0 0 194 65" fill="none" xmlns="http://www.w3.org/2000/svg">
<path fill-rule="evenodd" clip-rule="evenodd" d="M80.0714 23.8277C82.6043 26.1482 85.8915 27.4722 89.3248 27.5546C93.9646 27.5546 97.6111 24.7692 97.6111 20.9246C97.6111 15.8377 93.2458 14.6869 89.6124 14.0854C86.9984 13.6669 85.4039 13.3792 85.4039 12.3462C85.4039 11.3131 86.8546 11.0385 88.0179 11.0385C89.9149 11.0657 91.751 11.7133 93.2458 12.8823L96.2257 9.07693C93.9023 7.28258 91.0573 6.29548 88.1224 6.26539C83.1167 6.26539 80.359 9.12924 80.359 12.8039C80.359 16.8054 83.8486 18.0346 87.299 18.7931C89.9914 19.3423 92.5269 19.5646 92.5269 21.0031C92.5269 22.4415 90.6972 22.6639 89.364 22.6639C87.0962 22.5193 84.9546 21.5686 83.3258 19.9831L80.0714 23.8277ZM52.3766 31.2815L44.2733 39.3892V42.7108C44.2725 43.2237 44.1087 43.7231 43.8056 44.1367C43.5026 44.5504 43.0759 44.857 42.5873 45.0123L36.536 47.6277V49.4454H47.6976C48.3639 49.4257 48.9974 49.1521 49.4687 48.6805C49.94 48.2089 50.2135 47.5751 50.2332 46.9085V39.52C50.2317 39.0247 50.3823 38.5408 50.6645 38.1338C51.7096 36.0046 52.2931 33.6784 52.3766 31.3077V31.2815ZM17.99 46.9738C18.0098 47.6404 18.2832 48.2743 18.7545 48.7459C19.2258 49.2174 19.8594 49.4911 20.5256 49.5108H31.6872V47.6669L25.4267 44.9469C24.9932 44.7625 24.6234 44.4547 24.3632 44.0619C24.1029 43.669 23.9638 43.2083 23.9629 42.7369V39.4154L15.9381 31.3339C16.0375 33.6991 16.6484 36.0146 17.7287 38.1208C17.9441 38.4897 18.057 38.9096 18.0554 39.3369V46.9477L17.99 46.9738ZM18.3952 10.9469L34.0789 26.6392L49.7627 10.9469C49.2268 10.5285 48.6779 10.1231 48.1159 9.74385L35.7649 22.1015C35.5401 22.3289 35.2724 22.5094 34.9774 22.6325C34.6824 22.7557 34.3659 22.8191 34.0463 22.8191C33.7266 22.8191 33.4101 22.7557 33.1151 22.6325C32.8201 22.5094 32.5524 22.3289 32.3276 22.1015L19.9767 9.74385C19.4147 10.1231 18.8657 10.5285 18.3299 10.9469H18.3952ZM53.3176 14.2946C56.4699 17.9775 58.5001 22.4878 59.1673 27.2905C59.8345 32.0932 59.1107 36.9866 57.0817 41.39C56.5289 42.6151 55.8822 43.7955 55.1474 44.9208V40.1215C56.4973 37.2545 57.232 34.1362 57.3039 30.9677C57.4944 27.5654 56.9321 24.163 55.6571 21.0031C55.5356 20.7061 55.3563 20.4362 55.1295 20.2092C54.9028 19.9823 54.6331 19.8027 54.3363 19.681C54.0395 19.5593 53.7215 19.4979 53.4008 19.5003C53.08 19.5028 52.763 19.5691 52.4681 19.6954C52.191 19.8189 51.9386 19.9917 51.7231 20.2054L40.1956 31.7392C39.9509 31.9724 39.759 32.2552 39.6328 32.5687C39.5065 32.8823 39.4489 33.2192 39.4637 33.5569V41.0762H28.8118V33.5569C28.8108 33.2318 28.7443 32.9102 28.6163 32.6114C28.4883 32.3126 28.3014 32.0426 28.0668 31.8177L16.5654 20.31C16.3417 20.0831 16.0752 19.9029 15.7812 19.7799C15.4873 19.6569 15.1719 19.5935 14.8533 19.5935C14.5347 19.5935 14.2193 19.6569 13.9254 19.7799C13.6315 19.9029 13.3649 20.0831 13.1412 20.31C12.8742 20.5684 12.6726 20.8867 12.553 21.2385C11.3505 24.3113 10.8245 27.6076 11.0108 30.9023C11.0893 34.0293 11.8147 37.106 13.1412 39.9385V44.9208C12.3839 43.7976 11.7154 42.6171 11.1415 41.39C9.11252 36.9866 8.38869 32.0932 9.05588 27.2905C9.72306 22.4878 11.7533 17.9775 14.9056 14.2946L32.3929 31.7915C32.6178 32.0189 32.8854 32.1994 33.1805 32.3225C33.4755 32.4457 33.7919 32.5091 34.1116 32.5091C34.4313 32.5091 34.7478 32.4457 35.0428 32.3225C35.3378 32.1994 35.6054 32.0189 35.8303 31.7915L53.3176 14.2946ZM24.5641 7.32462C25.2438 7.05001 25.8711 6.80155 26.6553 6.57924L32.4321 12.3592C32.657 12.5866 32.9247 12.7671 33.2197 12.8902C33.5147 13.0134 33.8312 13.0768 34.1508 13.0768C34.4705 13.0768 34.787 13.0134 35.082 12.8902C35.377 12.7671 35.6446 12.5866 35.8695 12.3592L41.6463 6.57924C42.3521 6.80155 43.0579 7.05001 43.7375 7.32462L34.1051 16.9231L24.5249 7.32462H24.5641ZM49.645 54.4015V54.6238C49.6323 57.1729 48.7047 59.6326 47.0311 61.5546L46.8742 61.6985C45.2593 63.2459 43.1112 64.1122 40.8752 64.1177H27.3349C26.187 64.1108 25.0518 63.8761 23.9951 63.4271C22.9384 62.9782 21.9813 62.324 21.1791 61.5023L21.0353 61.3454C19.4691 59.436 18.6145 57.0416 18.6174 54.5715V54.3492H16.1864C15.6117 54.3511 15.0553 54.147 14.618 53.7739C11.2744 50.9453 8.58873 47.42 6.74883 43.4445C4.90894 39.4691 3.95925 35.1395 3.96619 30.7585C3.96178 28.7561 4.15882 26.7583 4.55433 24.7954C1.74401 21.4971 0.278873 17.2604 0.450848 12.9296C0.622823 8.59878 2.41928 4.49178 5.48228 1.42693C5.93761 0.974945 6.55302 0.721322 7.19442 0.721322C7.83582 0.721322 8.45123 0.974945 8.90656 1.42693L14.9448 7.46847C16.267 6.3787 17.6792 5.40315 19.1663 4.55232C23.7062 1.97195 28.838 0.615356 34.0593 0.615356C39.2806 0.615356 44.4124 1.97195 48.9523 4.55232C50.4394 5.40315 51.8517 6.3787 53.1739 7.46847L59.199 1.42693C59.6566 0.974136 60.2742 0.720175 60.9177 0.720175C61.5612 0.720175 62.1788 0.974136 62.6364 1.42693C65.6994 4.49178 67.4958 8.59878 67.6678 12.9296C67.8398 17.2604 66.3746 21.4971 63.5643 24.7954C64.8598 31.076 64.1275 37.6059 61.4732 43.4431C59.6532 47.3726 57.01 50.8646 53.7228 53.6823C53.5011 53.9031 53.2381 54.0779 52.9488 54.1968C52.6595 54.3158 52.3496 54.3764 52.0368 54.3754L49.645 54.4015ZM23.5055 54.4015V54.6238C23.5099 55.8358 23.8738 57.0191 24.5511 58.0239L24.6426 58.1154C25.3696 58.837 26.3501 59.2453 27.3741 59.2531H40.8883C41.8572 59.2437 42.7884 58.8757 43.5022 58.22L43.5937 58.1154C44.3383 57.1035 44.7412 55.8804 44.7439 54.6238V54.4015H23.4663H23.5055ZM56.768 10.8423C58.8467 13.2158 60.5443 15.8981 61.7999 18.7931C62.6851 16.8725 63.0634 14.7569 62.8986 12.6484C62.7339 10.5399 62.0316 8.50884 60.8589 6.74924L56.768 10.8423ZM6.4233 18.7931C7.67894 15.8981 9.37647 13.2158 11.4552 10.8423L7.36433 6.74924C6.19159 8.50884 5.48931 10.5399 5.32456 12.6484C5.15982 14.7569 5.53811 16.8725 6.4233 18.7931ZM103.27 27.5808H108.59V6.33078H103.27V27.5808ZM120.875 27.5808V19.4208H124.025L128.691 27.5808H134.873L129.645 18.7539C130.599 18.3877 131.445 17.7847 132.102 17.0015C133.017 15.8302 133.506 14.3819 133.488 12.8954C133.523 11.7996 133.273 10.7133 132.762 9.74342C132.251 8.77354 131.497 7.95346 130.573 7.36385C129.301 6.61591 127.837 6.26102 126.365 6.34385H115.647V27.5808H120.875ZM120.875 14.5823V11.2085H125.855C126.266 11.181 126.679 11.2343 127.07 11.3654C127.386 11.4808 127.659 11.6884 127.855 11.9612C128.051 12.2341 128.16 12.5596 128.168 12.8954C128.163 13.2321 128.056 13.5593 127.859 13.8328C127.663 14.1064 127.388 14.3132 127.07 14.4254C126.68 14.561 126.266 14.6145 125.855 14.5823H120.875ZM139.97 27.5808H145.329V6.33078H139.97V27.5808ZM165.561 6.33078V17.6031C165.568 18.2523 165.485 18.8994 165.312 19.5254C165.153 20.4346 164.679 21.2586 163.972 21.8523C163.266 22.446 162.373 22.7715 161.45 22.7715C160.528 22.7715 159.635 22.446 158.928 21.8523C158.222 21.2586 157.747 20.4346 157.588 19.5254C157.412 18.8999 157.324 18.2529 157.327 17.6031V6.33078H151.994V16.3346C151.953 17.5247 152.027 18.716 152.217 19.8915C152.608 22.0529 153.746 24.0081 155.431 25.416C157.116 26.8239 159.242 27.5951 161.437 27.5951C163.633 27.5951 165.758 26.8239 167.444 25.416C169.129 24.0081 170.266 22.0529 170.658 19.8915C170.842 18.7154 170.912 17.5242 170.867 16.3346V6.33078H165.561ZM176.278 23.8539C178.811 26.1744 182.098 27.4983 185.531 27.5808C190.171 27.5808 193.831 24.7954 193.831 20.9508C193.831 15.8639 189.452 14.7131 185.819 14.1115C183.205 13.6931 181.624 13.4054 181.624 12.3723C181.624 11.3392 183.061 11.0646 184.237 11.0646C186.135 11.0918 187.971 11.7394 189.465 12.9085L192.38 9.15539C190.061 7.36203 187.22 6.37488 184.29 6.34385C179.284 6.34385 176.513 9.2077 176.513 12.8823C176.513 16.8839 180.003 18.1131 183.466 18.8715C186.08 19.4208 188.694 19.6431 188.694 21.0815C188.694 22.52 186.865 22.7423 185.531 22.7423C183.264 22.5955 181.123 21.6451 179.493 20.0615L176.278 23.8277V23.8539ZM86.8546 55.9315H83.7963V41.2592H86.8546C88.028 41.2041 89.2007 41.3818 90.3051 41.7823C91.6456 42.3481 92.7896 43.2968 93.594 44.5098C94.3984 45.7228 94.8274 47.1462 94.8274 48.6019C94.8274 50.0576 94.3984 51.481 93.594 52.694C92.7896 53.907 91.6456 54.8558 90.3051 55.4215C89.1979 55.8098 88.0267 55.9829 86.8546 55.9315ZM86.8546 37.9639H80.3198V59.2008H86.8546C88.1771 59.2451 89.4988 59.0908 90.7756 58.7431C92.9579 58.0897 94.8714 56.7493 96.2319 54.9212C97.5923 53.0931 98.3271 50.8746 98.3271 48.5954C98.3271 46.3162 97.5923 44.0977 96.2319 42.2696C94.8714 40.4414 92.9579 39.1011 90.7756 38.4477C89.5007 38.0886 88.1786 37.9254 86.8546 37.9639ZM119.372 59.2008H123.11L114.589 37.9639H111.06L102.525 59.2008H106.237L107.766 55.2777H117.882L119.425 59.2008H119.372ZM112.837 42.2008L116.628 51.9954H109.047L112.837 42.2008ZM149.433 48.5823C149.466 46.4422 148.863 44.3404 147.7 42.5443C146.536 40.7483 144.865 39.339 142.899 38.496C140.932 37.6529 138.76 37.4141 136.657 37.8099C134.555 38.2058 132.618 39.2183 131.092 40.7188C129.567 42.2193 128.522 44.1399 128.091 46.2363C127.659 48.3327 127.861 50.5101 128.669 52.4916C129.478 54.4731 130.858 56.169 132.633 57.3637C134.408 58.5585 136.498 59.1979 138.637 59.2008C140.052 59.247 141.461 59.0053 142.78 58.4904C144.098 57.9754 145.299 57.198 146.308 56.2052C147.317 55.2124 148.115 54.0248 148.652 52.7145C149.189 51.4042 149.455 49.9984 149.433 48.5823ZM145.799 48.5823C145.799 50.4898 145.042 52.3192 143.694 53.668C142.346 55.0169 140.517 55.7746 138.611 55.7746C136.704 55.7746 134.876 55.0169 133.528 53.668C132.18 52.3192 131.423 50.4898 131.423 48.5823C131.423 46.6748 132.18 44.8454 133.528 43.4966C134.876 42.1478 136.704 41.39 138.611 41.39C140.517 41.39 142.346 42.1478 143.694 43.4966C145.042 44.8454 145.799 46.6748 145.799 48.5823Z" fill="white"/>
</svg>
