<svg width="58" height="58" viewBox="0 0 58 58" fill="none" xmlns="http://www.w3.org/2000/svg">
<rect width="58" height="58" rx="29" fill="white"/>
<path d="M47.0166 9.57123L31.4014 21.1688L34.289 14.3264L47.0166 9.57123Z" fill="#E2761B" stroke="#E2761B" stroke-linecap="round" stroke-linejoin="round"/>
<path d="M10.9683 9.57123L26.4579 21.2787L23.7115 14.3264L10.9683 9.57123Z" fill="#E4761B" stroke="#E4761B" stroke-linecap="round" stroke-linejoin="round"/>
<path d="M41.3981 36.4545L37.2393 42.8261L46.1376 45.2743L48.6956 36.5957L41.3981 36.4545Z" fill="#E4761B" stroke="#E4761B" stroke-linecap="round" stroke-linejoin="round"/>
<path d="M9.32031 36.5957L11.8627 45.2743L20.761 42.8261L16.6022 36.4545L9.32031 36.5957Z" fill="#E4761B" stroke="#E4761B" stroke-linecap="round" stroke-linejoin="round"/>
<path d="M20.2589 25.6886L17.7793 29.4394L26.6148 29.8318L26.301 20.3371L20.2589 25.6886Z" fill="#E4761B" stroke="#E4761B" stroke-linecap="round" stroke-linejoin="round"/>
<path d="M37.7259 25.6886L31.6054 20.2272L31.4014 29.8318L40.2212 29.4394L37.7259 25.6886Z" fill="#E4761B" stroke="#E4761B" stroke-linecap="round" stroke-linejoin="round"/>
<path d="M20.7612 42.8261L26.0657 40.2367L21.4831 36.6585L20.7612 42.8261Z" fill="#E4761B" stroke="#E4761B" stroke-linecap="round" stroke-linejoin="round"/>
<path d="M31.9189 40.2367L37.2391 42.8261L36.5015 36.6585L31.9189 40.2367Z" fill="#E4761B" stroke="#E4761B" stroke-linecap="round" stroke-linejoin="round"/>
<path d="M37.2391 42.8261L31.9189 40.2366L32.3427 43.7049L32.2956 45.1644L37.2391 42.8261Z" fill="#D7C1B3" stroke="#D7C1B3" stroke-linecap="round" stroke-linejoin="round"/>
<path d="M20.7607 42.8261L25.7042 45.1644L25.6729 43.7049L26.0652 40.2366L20.7607 42.8261Z" fill="#D7C1B3" stroke="#D7C1B3" stroke-linecap="round" stroke-linejoin="round"/>
<path d="M25.783 34.3672L21.3574 33.0647L24.4805 31.6365L25.783 34.3672Z" fill="#233447" stroke="#233447" stroke-linecap="round" stroke-linejoin="round"/>
<path d="M32.2017 34.3672L33.5042 31.6365L36.643 33.0647L32.2017 34.3672Z" fill="#233447" stroke="#233447" stroke-linecap="round" stroke-linejoin="round"/>
<path d="M20.7609 42.8261L21.5142 36.4545L16.6021 36.5958L20.7609 42.8261Z" fill="#CD6116" stroke="#CD6116" stroke-linecap="round" stroke-linejoin="round"/>
<path d="M36.4858 36.4545L37.2391 42.8261L41.398 36.5958L36.4858 36.4545Z" fill="#CD6116" stroke="#CD6116" stroke-linecap="round" stroke-linejoin="round"/>
<path d="M40.2212 29.4395L31.4014 29.8318L32.2174 34.3673L33.52 31.6366L36.6587 33.0647L40.2212 29.4395Z" fill="#CD6116" stroke="#CD6116" stroke-linecap="round" stroke-linejoin="round"/>
<path d="M21.3575 33.0647L24.4962 31.6366L25.7831 34.3673L26.6148 29.8318L17.7793 29.4395L21.3575 33.0647Z" fill="#CD6116" stroke="#CD6116" stroke-linecap="round" stroke-linejoin="round"/>
<path d="M17.7788 29.4395L21.4825 36.6585L21.357 33.0647L17.7788 29.4395Z" fill="#E4751F" stroke="#E4751F" stroke-linecap="round" stroke-linejoin="round"/>
<path d="M36.6584 33.0647L36.5015 36.6585L40.2208 29.4395L36.6584 33.0647Z" fill="#E4751F" stroke="#E4751F" stroke-linecap="round" stroke-linejoin="round"/>
<path d="M26.6145 29.8318L25.7827 34.3673L26.8185 39.7188L27.0539 32.6723L26.6145 29.8318Z" fill="#E4751F" stroke="#E4751F" stroke-linecap="round" stroke-linejoin="round"/>
<path d="M31.4008 29.8318L30.9771 32.6566L31.1654 39.7188L32.2169 34.3673L31.4008 29.8318Z" fill="#E4751F" stroke="#E4751F" stroke-linecap="round" stroke-linejoin="round"/>
<path d="M32.217 34.3672L31.1655 39.7188L31.9188 40.2367L36.5014 36.6585L36.6583 33.0646L32.217 34.3672Z" fill="#F6851B" stroke="#F6851B" stroke-linecap="round" stroke-linejoin="round"/>
<path d="M21.3574 33.0646L21.483 36.6585L26.0655 40.2367L26.8188 39.7188L25.783 34.3672L21.3574 33.0646Z" fill="#F6851B" stroke="#F6851B" stroke-linecap="round" stroke-linejoin="round"/>
<path d="M32.2956 45.1645L32.3427 43.705L31.9503 43.3597H26.0338L25.6729 43.705L25.7042 45.1645L20.7607 42.8261L22.487 44.2385L25.9867 46.6711H31.9974L35.5128 44.2385L37.2391 42.8261L32.2956 45.1645Z" fill="#C0AD9E" stroke="#C0AD9E" stroke-linecap="round" stroke-linejoin="round"/>
<path d="M31.9189 40.2366L31.1656 39.7188H26.8185L26.0652 40.2366L25.6729 43.7049L26.0338 43.3597H31.9503L32.3427 43.7049L31.9189 40.2366Z" fill="#161616" stroke="#161616" stroke-linecap="round" stroke-linejoin="round"/>
<path d="M47.6754 21.9221L49.0093 15.5191L47.0162 9.57123L31.9189 20.7765L37.7256 25.6886L45.9334 28.0897L47.7538 25.9711L46.9692 25.4061L48.2247 24.2605L47.2517 23.5072L48.5071 22.5499L47.6754 21.9221Z" fill="#763D16" stroke="#763D16" stroke-linecap="round" stroke-linejoin="round"/>
<path d="M8.99072 15.5191L10.3247 21.9221L9.47723 22.5499L10.7327 23.5072L9.77541 24.2605L11.0309 25.4061L10.2462 25.9711L12.051 28.0897L20.2588 25.6886L26.0654 20.7765L10.9681 9.57123L8.99072 15.5191Z" fill="#763D16" stroke="#763D16" stroke-linecap="round" stroke-linejoin="round"/>
<path d="M45.9334 28.0898L37.7256 25.6887L40.2209 29.4394L36.5015 36.6585L41.3979 36.5958H48.6954L45.9334 28.0898Z" fill="#F6851B" stroke="#F6851B" stroke-linecap="round" stroke-linejoin="round"/>
<path d="M20.2588 25.6887L12.051 28.0898L9.32031 36.5958H16.6022L21.4829 36.6585L17.7792 29.4394L20.2588 25.6887Z" fill="#F6851B" stroke="#F6851B" stroke-linecap="round" stroke-linejoin="round"/>
<path d="M31.4013 29.8318L31.9192 20.7765L34.3046 14.3264H23.7114L26.0655 20.7765L26.6148 29.8318L26.8031 32.688L26.8188 39.7188H31.1659L31.1973 32.688L31.4013 29.8318Z" fill="#F6851B" stroke="#F6851B" stroke-linecap="round" stroke-linejoin="round"/>
</svg>
