<svg width="37" height="34" viewBox="0 0 37 34" fill="none" xmlns="http://www.w3.org/2000/svg">
<path fill-rule="evenodd" clip-rule="evenodd" d="M28.6001 16.3886L24.2922 20.6942V22.45C24.2912 22.7224 24.2039 22.9875 24.0429 23.2074C23.8819 23.4273 23.6553 23.5907 23.3956 23.6744L20.1798 25.067V26.029H26.1124C26.47 26.029 26.813 25.8873 27.0658 25.635C27.3187 25.3826 27.4607 25.0404 27.4607 24.6835V20.748C27.4533 20.4889 27.5237 20.2335 27.663 20.0147C28.2181 18.8828 28.5304 17.6478 28.5798 16.3886H28.6001ZM10.3102 24.6835C10.3102 25.0404 10.4522 25.3826 10.7051 25.635C10.9579 25.8873 11.3009 26.029 11.6585 26.029H17.5911V25.067L14.2607 23.6273C14.0339 23.5254 13.8417 23.3599 13.7077 23.1508C13.5736 22.9417 13.5034 22.6982 13.5057 22.45V20.6942L9.18432 16.4424C9.24443 17.6826 9.56847 18.8957 10.1349 20.0012C10.2514 20.2063 10.3118 20.4383 10.3102 20.674V24.7105V24.6835ZM10.5259 5.57755L18.8989 13.9129L27.2383 5.57755C26.9551 5.34882 26.6652 5.14026 26.3619 4.9048L19.7956 11.4574C19.6759 11.5776 19.5336 11.673 19.3768 11.7381C19.22 11.8032 19.0519 11.8367 18.8821 11.8367C18.7123 11.8367 18.5441 11.8032 18.3874 11.7381C18.2306 11.673 18.0883 11.5776 17.9686 11.4574L11.4023 4.93844C11.0989 5.14026 10.809 5.34882 10.5259 5.61119V5.57755ZM29.0989 7.36033C30.7783 9.31284 31.8614 11.705 32.2199 14.2531C32.5784 16.8012 32.1971 19.3984 31.1214 21.7369C30.8205 22.3882 30.4665 23.0137 30.063 23.6072V21.0642C30.7751 19.5503 31.1654 17.9057 31.209 16.2339C31.3081 14.4307 31.009 12.6278 30.3326 10.9528C30.2659 10.7969 30.1688 10.6557 30.0471 10.5374C29.9254 10.4191 29.7815 10.326 29.6236 10.2635C29.4656 10.2009 29.2969 10.1702 29.127 10.173C28.9571 10.1759 28.7895 10.2123 28.6338 10.28C28.4885 10.346 28.3561 10.4371 28.2428 10.5491L22.1147 16.6644C21.8731 16.9052 21.7373 17.2319 21.7371 17.5726V21.5687H16.0607V17.5793C16.0607 17.4074 16.026 17.2373 15.9588 17.079C15.8917 16.9206 15.7934 16.7774 15.6697 16.6577L9.55511 10.5559C9.43543 10.4357 9.29311 10.3403 9.13634 10.2752C8.97956 10.2101 8.81143 10.1765 8.64163 10.1765C8.47182 10.1765 8.30369 10.2101 8.14692 10.2752C7.99014 10.3403 7.84782 10.4357 7.72814 10.5559C7.59121 10.6976 7.49161 10.8709 7.43825 11.0604C6.79862 12.6905 6.51811 14.4389 6.61578 16.1868C6.65885 17.8442 7.04443 19.4749 7.74837 20.9767V23.6206C7.34482 23.0272 6.99082 22.4017 6.68994 21.7504C5.6142 19.4119 5.23297 16.8146 5.59143 14.2665C5.94989 11.7184 7.03302 9.3263 8.71241 7.37378L18.0158 16.6577C18.1355 16.7779 18.2778 16.8733 18.4346 16.9384C18.5913 17.0035 18.7595 17.037 18.9293 17.037C19.0991 17.037 19.2672 17.0035 19.424 16.9384C19.5807 16.8733 19.7231 16.7779 19.8427 16.6577L29.1461 7.37378L29.0989 7.36033ZM13.7821 3.66022C14.1461 3.51222 14.5169 3.37767 14.8944 3.25657L17.9686 6.35121C18.0883 6.47142 18.2306 6.56682 18.3874 6.63193C18.5441 6.69703 18.7123 6.73055 18.8821 6.73055C19.0519 6.73055 19.22 6.69703 19.3768 6.63193C19.5336 6.56682 19.6759 6.47142 19.7956 6.35121L22.8697 3.28348C23.2472 3.40458 23.618 3.53913 23.9821 3.68713L18.8989 8.75964L13.7821 3.66022ZM27.1236 28.6057V28.7268C27.126 30.0742 26.6481 31.3785 25.7753 32.4067L25.6944 32.4807C24.8338 33.3012 23.6892 33.7591 22.4989 33.7589H15.2787C14.0513 33.76 12.8734 33.2763 12.0023 32.4134C11.9741 32.3874 11.9491 32.358 11.9281 32.326C11.0951 31.3134 10.64 30.0436 10.6405 28.7335V28.6124H9.35286C9.04723 28.6126 8.75128 28.5054 8.51691 28.3097C6.74051 26.8069 5.31321 24.9363 4.33414 22.8277C3.35507 20.7192 2.84769 18.4232 2.84724 16.0993C2.84614 15.0352 2.95229 13.9736 3.1641 12.9307C1.66888 11.1821 0.889116 8.9354 0.980332 6.63858C1.07155 4.34175 2.02704 2.16365 3.65623 0.538679C3.89969 0.299155 4.22783 0.164876 4.56972 0.164876C4.9116 0.164876 5.23974 0.299155 5.4832 0.538679L8.69219 3.74768C9.39389 3.16761 10.1451 2.64986 10.9371 2.20036C13.3513 0.833477 16.0795 0.114929 18.8551 0.114929C21.6308 0.114929 24.359 0.833477 26.7731 2.20036C27.5652 2.64986 28.3163 3.16761 29.018 3.74768L32.227 0.538679C32.4705 0.299155 32.7986 0.164876 33.1405 0.164876C33.4824 0.164876 33.8105 0.299155 34.054 0.538679C35.6832 2.16365 36.6387 4.34175 36.7299 6.63858C36.8211 8.9354 36.0413 11.1821 34.5461 12.9307C35.2205 16.2648 34.8119 19.7267 33.3798 22.8133C32.4106 24.8955 31.0061 26.7466 29.2607 28.2424C29.0189 28.4768 28.6945 28.6073 28.3574 28.6057H27.1236ZM13.2225 28.6057V28.7268C13.2209 29.3695 13.4135 29.9979 13.7753 30.5297L13.8293 30.5835C14.0182 30.7758 14.2437 30.9285 14.4927 31.0325C14.7416 31.1365 15.0088 31.1897 15.2787 31.189H22.4854C23.0054 31.1856 23.5053 30.9889 23.8877 30.6374L23.9349 30.5835C24.3268 30.0432 24.539 29.3938 24.5416 28.7268V28.6057H13.2225ZM30.9259 5.53719C32.0396 6.79439 32.9494 8.21762 33.6225 9.7553C34.0097 8.89659 34.2096 7.96558 34.209 7.02395C34.2096 5.72831 33.8248 4.46166 33.1034 3.3844L30.9259 5.55737V5.53719ZM4.15511 9.7553C4.8282 8.21762 5.73807 6.79439 6.85174 5.53719L4.66073 3.36421C3.93552 4.44719 3.55056 5.72144 3.55511 7.02395C3.55877 7.96656 3.76329 8.89761 4.15511 9.7553Z" fill="#280F5A"/>
</svg>
